<?xml version="1.0" standalone="no"?>
<svg viewBox="0 0 200 200" xmlns="http://www.w3.org/2000/svg">
  <path fill="#124229" d="M38.9,-59C53.8,-51,71.5,-45.8,76,-35C80.6,-24.1,72,-7.5,68.1,8.8C64.2,25.1,65,41.1,58.2,52.2C51.3,63.4,36.9,69.8,22,73.7C7.1,77.6,-8.3,79,-19.4,72.7C-30.6,66.4,-37.6,52.5,-46.9,41C-56.3,29.6,-68.1,20.5,-68.9,10.3C-69.7,0.1,-59.7,-11.3,-53.4,-24C-47,-36.8,-44.4,-50.9,-36.1,-62C-27.9,-73,-13.9,-80.9,-1,-79.4C12,-77.9,24,-67,38.9,-59Z" transform="translate(100 100)" />
</svg>
